<svg id="visual" viewBox="0 0 960 540" width="960" height="540" xmlns="http://www.w3.org/2000/svg" xmlns:xlink="http://www.w3.org/1999/xlink" version="1.1"><rect x="0" y="0" width="960" height="540" fill="#20221C"></rect><path d="M0 402L26.7 401.3C53.3 400.7 106.7 399.3 160 398.7C213.3 398 266.7 398 320 404.2C373.3 410.3 426.7 422.7 480 433.7C533.3 444.7 586.7 454.3 640 455.7C693.3 457 746.7 450 800 439.5C853.3 429 906.7 415 933.3 408L960 401L960 0L933.3 0C906.7 0 853.3 0 800 0C746.7 0 693.3 0 640 0C586.7 0 533.3 0 480 0C426.7 0 373.3 0 320 0C266.7 0 213.3 0 160 0C106.7 0 53.3 0 26.7 0L0 0Z" fill="#20221c"></path><path d="M0 355L26.7 359.8C53.3 364.7 106.7 374.3 160 379.5C213.3 384.7 266.7 385.3 320 377.2C373.3 369 426.7 352 480 354.3C533.3 356.7 586.7 378.3 640 389.7C693.3 401 746.7 402 800 392.3C853.3 382.7 906.7 362.3 933.3 352.2L960 342L960 0L933.3 0C906.7 0 853.3 0 800 0C746.7 0 693.3 0 640 0C586.7 0 533.3 0 480 0C426.7 0 373.3 0 320 0C266.7 0 213.3 0 160 0C106.7 0 53.3 0 26.7 0L0 0Z" fill="#24251f"></path><path d="M0 337L26.7 337.3C53.3 337.7 106.7 338.3 160 336.8C213.3 335.3 266.7 331.7 320 324.2C373.3 316.7 426.7 305.3 480 305.7C533.3 306 586.7 318 640 321C693.3 324 746.7 318 800 320.5C853.3 323 906.7 334 933.3 339.5L960 345L960 0L933.3 0C906.7 0 853.3 0 800 0C746.7 0 693.3 0 640 0C586.7 0 533.3 0 480 0C426.7 0 373.3 0 320 0C266.7 0 213.3 0 160 0C106.7 0 53.3 0 26.7 0L0 0Z" fill="#282722"></path><path d="M0 273L26.7 270.5C53.3 268 106.7 263 160 258.2C213.3 253.3 266.7 248.7 320 250.3C373.3 252 426.7 260 480 262.2C533.3 264.3 586.7 260.7 640 255.2C693.3 249.7 746.7 242.3 800 237.3C853.3 232.3 906.7 229.7 933.3 228.3L960 227L960 0L933.3 0C906.7 0 853.3 0 800 0C746.7 0 693.3 0 640 0C586.7 0 533.3 0 480 0C426.7 0 373.3 0 320 0C266.7 0 213.3 0 160 0C106.7 0 53.3 0 26.7 0L0 0Z" fill="#2b2a26"></path><path d="M0 180L26.7 186.7C53.3 193.3 106.7 206.7 160 209.3C213.3 212 266.7 204 320 195.3C373.3 186.7 426.7 177.3 480 180C533.3 182.7 586.7 197.3 640 204.5C693.3 211.7 746.7 211.3 800 207C853.3 202.7 906.7 194.3 933.3 190.2L960 186L960 0L933.3 0C906.7 0 853.3 0 800 0C746.7 0 693.3 0 640 0C586.7 0 533.3 0 480 0C426.7 0 373.3 0 320 0C266.7 0 213.3 0 160 0C106.7 0 53.3 0 26.7 0L0 0Z" fill="#2e2d2a"></path><path d="M0 112L26.7 113.2C53.3 114.3 106.7 116.7 160 120.8C213.3 125 266.7 131 320 134C373.3 137 426.7 137 480 133.2C533.3 129.3 586.7 121.7 640 121C693.3 120.3 746.7 126.7 800 124.5C853.3 122.3 906.7 111.7 933.3 106.3L960 101L960 0L933.3 0C906.7 0 853.3 0 800 0C746.7 0 693.3 0 640 0C586.7 0 533.3 0 480 0C426.7 0 373.3 0 320 0C266.7 0 213.3 0 160 0C106.7 0 53.3 0 26.7 0L0 0Z" fill="#31302e"></path><path d="M0 59L26.7 62.3C53.3 65.7 106.7 72.3 160 73.5C213.3 74.7 266.7 70.3 320 64.2C373.3 58 426.7 50 480 51.5C533.3 53 586.7 64 640 72.5C693.3 81 746.7 87 800 81.8C853.3 76.7 906.7 60.3 933.3 52.2L960 44L960 0L933.3 0C906.7 0 853.3 0 800 0C746.7 0 693.3 0 640 0C586.7 0 533.3 0 480 0C426.7 0 373.3 0 320 0C266.7 0 213.3 0 160 0C106.7 0 53.3 0 26.7 0L0 0Z" fill="#343332"></path></svg>