<svg id="visual" viewBox="0 0 960 540" width="960" height="540" xmlns="http://www.w3.org/2000/svg" xmlns:xlink="http://www.w3.org/1999/xlink" version="1.1"><rect x="0" y="0" width="960" height="540" fill="#343332"></rect><path d="M0 389L16 391.2C32 393.3 64 397.7 96 401.5C128 405.3 160 408.7 192 409C224 409.3 256 406.7 288 406C320 405.3 352 406.7 384 400.5C416 394.3 448 380.7 480 382.2C512 383.7 544 400.3 576 408C608 415.7 640 414.3 672 408C704 401.7 736 390.3 768 387.8C800 385.3 832 391.7 864 397.7C896 403.7 928 409.3 944 412.2L960 415L960 0L944 0C928 0 896 0 864 0C832 0 800 0 768 0C736 0 704 0 672 0C640 0 608 0 576 0C544 0 512 0 480 0C448 0 416 0 384 0C352 0 320 0 288 0C256 0 224 0 192 0C160 0 128 0 96 0C64 0 32 0 16 0L0 0Z" fill="#343332"></path><path d="M0 346L16 348.3C32 350.7 64 355.3 96 352.7C128 350 160 340 192 336.7C224 333.3 256 336.7 288 341.2C320 345.7 352 351.3 384 354.5C416 357.7 448 358.3 480 357C512 355.7 544 352.3 576 351C608 349.7 640 350.3 672 351C704 351.7 736 352.3 768 346.7C800 341 832 329 864 327.5C896 326 928 335 944 339.5L960 344L960 0L944 0C928 0 896 0 864 0C832 0 800 0 768 0C736 0 704 0 672 0C640 0 608 0 576 0C544 0 512 0 480 0C448 0 416 0 384 0C352 0 320 0 288 0C256 0 224 0 192 0C160 0 128 0 96 0C64 0 32 0 16 0L0 0Z" fill="#312f2e"></path><path d="M0 259L16 263.8C32 268.7 64 278.3 96 280C128 281.7 160 275.3 192 273C224 270.7 256 272.3 288 274.3C320 276.3 352 278.7 384 277.7C416 276.7 448 272.3 480 268.5C512 264.7 544 261.3 576 266.3C608 271.3 640 284.7 672 291C704 297.3 736 296.7 768 292.3C800 288 832 280 864 276.3C896 272.7 928 273.3 944 273.7L960 274L960 0L944 0C928 0 896 0 864 0C832 0 800 0 768 0C736 0 704 0 672 0C640 0 608 0 576 0C544 0 512 0 480 0C448 0 416 0 384 0C352 0 320 0 288 0C256 0 224 0 192 0C160 0 128 0 96 0C64 0 32 0 16 0L0 0Z" fill="#2f2b2b"></path><path d="M0 234L16 233.7C32 233.3 64 232.7 96 235.2C128 237.7 160 243.3 192 243.3C224 243.3 256 237.7 288 235.7C320 233.7 352 235.3 384 236.3C416 237.3 448 237.7 480 236.7C512 235.7 544 233.3 576 233.3C608 233.3 640 235.7 672 237C704 238.3 736 238.7 768 234.7C800 230.7 832 222.3 864 220C896 217.7 928 221.3 944 223.2L960 225L960 0L944 0C928 0 896 0 864 0C832 0 800 0 768 0C736 0 704 0 672 0C640 0 608 0 576 0C544 0 512 0 480 0C448 0 416 0 384 0C352 0 320 0 288 0C256 0 224 0 192 0C160 0 128 0 96 0C64 0 32 0 16 0L0 0Z" fill="#2c2728"></path><path d="M0 188L16 184.7C32 181.3 64 174.7 96 169.3C128 164 160 160 192 161.8C224 163.7 256 171.3 288 174.3C320 177.3 352 175.7 384 176C416 176.3 448 178.7 480 181.8C512 185 544 189 576 188.7C608 188.3 640 183.7 672 182C704 180.3 736 181.7 768 180.7C800 179.7 832 176.3 864 177.5C896 178.7 928 184.3 944 187.2L960 190L960 0L944 0C928 0 896 0 864 0C832 0 800 0 768 0C736 0 704 0 672 0C640 0 608 0 576 0C544 0 512 0 480 0C448 0 416 0 384 0C352 0 320 0 288 0C256 0 224 0 192 0C160 0 128 0 96 0C64 0 32 0 16 0L0 0Z" fill="#282426"></path><path d="M0 113L16 115.5C32 118 64 123 96 126C128 129 160 130 192 128.3C224 126.7 256 122.3 288 120.2C320 118 352 118 384 119.8C416 121.7 448 125.3 480 124.5C512 123.7 544 118.3 576 115.8C608 113.3 640 113.7 672 117.5C704 121.3 736 128.7 768 129.2C800 129.7 832 123.3 864 121.3C896 119.3 928 121.7 944 122.8L960 124L960 0L944 0C928 0 896 0 864 0C832 0 800 0 768 0C736 0 704 0 672 0C640 0 608 0 576 0C544 0 512 0 480 0C448 0 416 0 384 0C352 0 320 0 288 0C256 0 224 0 192 0C160 0 128 0 96 0C64 0 32 0 16 0L0 0Z" fill="#242125"></path><path d="M0 66L16 65.8C32 65.7 64 65.3 96 65.2C128 65 160 65 192 64.5C224 64 256 63 288 63.2C320 63.3 352 64.7 384 64C416 63.3 448 60.7 480 62.8C512 65 544 72 576 71.3C608 70.7 640 62.3 672 60.8C704 59.3 736 64.7 768 65.7C800 66.7 832 63.3 864 61C896 58.7 928 57.3 944 56.7L960 56L960 0L944 0C928 0 896 0 864 0C832 0 800 0 768 0C736 0 704 0 672 0C640 0 608 0 576 0C544 0 512 0 480 0C448 0 416 0 384 0C352 0 320 0 288 0C256 0 224 0 192 0C160 0 128 0 96 0C64 0 32 0 16 0L0 0Z" fill="#1e1e24"></path></svg>