<svg id="visual" viewBox="0 0 960 540" width="960" height="540" xmlns="http://www.w3.org/2000/svg" xmlns:xlink="http://www.w3.org/1999/xlink" version="1.1"><rect x="0" y="0" width="960" height="540" fill="#F2F7CA"></rect><path d="M0 386L26.7 391.8C53.3 397.7 106.7 409.3 160 423.2C213.3 437 266.7 453 320 457C373.3 461 426.7 453 480 439.2C533.3 425.3 586.7 405.7 640 404.7C693.3 403.7 746.7 421.3 800 427C853.3 432.7 906.7 426.3 933.3 423.2L960 420L960 0L933.3 0C906.7 0 853.3 0 800 0C746.7 0 693.3 0 640 0C586.7 0 533.3 0 480 0C426.7 0 373.3 0 320 0C266.7 0 213.3 0 160 0C106.7 0 53.3 0 26.7 0L0 0Z" fill="#f2f7ca"></path><path d="M0 328L26.7 336.5C53.3 345 106.7 362 160 367.2C213.3 372.3 266.7 365.7 320 357.7C373.3 349.7 426.7 340.3 480 336.2C533.3 332 586.7 333 640 343C693.3 353 746.7 372 800 381.8C853.3 391.7 906.7 392.3 933.3 392.7L960 393L960 0L933.3 0C906.7 0 853.3 0 800 0C746.7 0 693.3 0 640 0C586.7 0 533.3 0 480 0C426.7 0 373.3 0 320 0C266.7 0 213.3 0 160 0C106.7 0 53.3 0 26.7 0L0 0Z" fill="#e8f0c5"></path><path d="M0 283L26.7 283C53.3 283 106.7 283 160 285.5C213.3 288 266.7 293 320 293.2C373.3 293.3 426.7 288.7 480 287C533.3 285.3 586.7 286.7 640 280.8C693.3 275 746.7 262 800 263.2C853.3 264.3 906.7 279.7 933.3 287.3L960 295L960 0L933.3 0C906.7 0 853.3 0 800 0C746.7 0 693.3 0 640 0C586.7 0 533.3 0 480 0C426.7 0 373.3 0 320 0C266.7 0 213.3 0 160 0C106.7 0 53.3 0 26.7 0L0 0Z" fill="#dee9c0"></path><path d="M0 193L26.7 195.7C53.3 198.3 106.7 203.7 160 210.2C213.3 216.7 266.7 224.3 320 230C373.3 235.7 426.7 239.3 480 237.2C533.3 235 586.7 227 640 219.2C693.3 211.3 746.7 203.7 800 204.5C853.3 205.3 906.7 214.7 933.3 219.3L960 224L960 0L933.3 0C906.7 0 853.3 0 800 0C746.7 0 693.3 0 640 0C586.7 0 533.3 0 480 0C426.7 0 373.3 0 320 0C266.7 0 213.3 0 160 0C106.7 0 53.3 0 26.7 0L0 0Z" fill="#d4e2ba"></path><path d="M0 174L26.7 173C53.3 172 106.7 170 160 169.8C213.3 169.7 266.7 171.3 320 165C373.3 158.7 426.7 144.3 480 142.5C533.3 140.7 586.7 151.3 640 151.5C693.3 151.7 746.7 141.3 800 142.2C853.3 143 906.7 155 933.3 161L960 167L960 0L933.3 0C906.7 0 853.3 0 800 0C746.7 0 693.3 0 640 0C586.7 0 533.3 0 480 0C426.7 0 373.3 0 320 0C266.7 0 213.3 0 160 0C106.7 0 53.3 0 26.7 0L0 0Z" fill="#cadbb5"></path><path d="M0 64L26.7 67.5C53.3 71 106.7 78 160 81.2C213.3 84.3 266.7 83.7 320 79.8C373.3 76 426.7 69 480 69.3C533.3 69.7 586.7 77.3 640 81.3C693.3 85.3 746.7 85.7 800 82.3C853.3 79 906.7 72 933.3 68.5L960 65L960 0L933.3 0C906.7 0 853.3 0 800 0C746.7 0 693.3 0 640 0C586.7 0 533.3 0 480 0C426.7 0 373.3 0 320 0C266.7 0 213.3 0 160 0C106.7 0 53.3 0 26.7 0L0 0Z" fill="#c1d4b0"></path></svg>