<svg id="visual" viewBox="0 0 960 540" width="960" height="540" xmlns="http://www.w3.org/2000/svg" xmlns:xlink="http://www.w3.org/1999/xlink" version="1.1"><rect x="0" y="0" width="960" height="540" fill="#2A2D26"></rect><path d="M0 396L16 398.5C32 401 64 406 96 407.2C128 408.3 160 405.7 192 401.3C224 397 256 391 288 386.7C320 382.3 352 379.7 384 381.8C416 384 448 391 480 392.5C512 394 544 390 576 390.7C608 391.3 640 396.7 672 401.7C704 406.7 736 411.3 768 410.5C800 409.7 832 403.3 864 403C896 402.7 928 408.3 944 411.2L960 414L960 0L944 0C928 0 896 0 864 0C832 0 800 0 768 0C736 0 704 0 672 0C640 0 608 0 576 0C544 0 512 0 480 0C448 0 416 0 384 0C352 0 320 0 288 0C256 0 224 0 192 0C160 0 128 0 96 0C64 0 32 0 16 0L0 0Z" fill="#2a2d26"></path><path d="M0 328L16 326C32 324 64 320 96 324.8C128 329.7 160 343.3 192 348.7C224 354 256 351 288 350.8C320 350.7 352 353.3 384 352.5C416 351.7 448 347.3 480 340.3C512 333.3 544 323.7 576 326.2C608 328.7 640 343.3 672 343.3C704 343.3 736 328.7 768 321.3C800 314 832 314 864 320.2C896 326.3 928 338.7 944 344.8L960 351L960 0L944 0C928 0 896 0 864 0C832 0 800 0 768 0C736 0 704 0 672 0C640 0 608 0 576 0C544 0 512 0 480 0C448 0 416 0 384 0C352 0 320 0 288 0C256 0 224 0 192 0C160 0 128 0 96 0C64 0 32 0 16 0L0 0Z" fill="#282b24"></path><path d="M0 277L16 278.3C32 279.7 64 282.3 96 280.2C128 278 160 271 192 274.2C224 277.3 256 290.7 288 295C320 299.3 352 294.7 384 287.3C416 280 448 270 480 267.5C512 265 544 270 576 275.2C608 280.3 640 285.7 672 286C704 286.3 736 281.7 768 279.2C800 276.7 832 276.3 864 277.7C896 279 928 282 944 283.5L960 285L960 0L944 0C928 0 896 0 864 0C832 0 800 0 768 0C736 0 704 0 672 0C640 0 608 0 576 0C544 0 512 0 480 0C448 0 416 0 384 0C352 0 320 0 288 0C256 0 224 0 192 0C160 0 128 0 96 0C64 0 32 0 16 0L0 0Z" fill="#272923"></path><path d="M0 208L16 208.7C32 209.3 64 210.7 96 215.8C128 221 160 230 192 235C224 240 256 241 288 242C320 243 352 244 384 240.8C416 237.7 448 230.3 480 224.5C512 218.7 544 214.3 576 214C608 213.7 640 217.3 672 218.7C704 220 736 219 768 223.3C800 227.7 832 237.3 864 239.8C896 242.3 928 237.7 944 235.3L960 233L960 0L944 0C928 0 896 0 864 0C832 0 800 0 768 0C736 0 704 0 672 0C640 0 608 0 576 0C544 0 512 0 480 0C448 0 416 0 384 0C352 0 320 0 288 0C256 0 224 0 192 0C160 0 128 0 96 0C64 0 32 0 16 0L0 0Z" fill="#252721"></path><path d="M0 193L16 186.8C32 180.7 64 168.3 96 164.7C128 161 160 166 192 169.8C224 173.7 256 176.3 288 176.2C320 176 352 173 384 169.8C416 166.7 448 163.3 480 166.5C512 169.7 544 179.3 576 182.5C608 185.7 640 182.3 672 182.5C704 182.7 736 186.3 768 187.7C800 189 832 188 864 183.3C896 178.7 928 170.3 944 166.2L960 162L960 0L944 0C928 0 896 0 864 0C832 0 800 0 768 0C736 0 704 0 672 0C640 0 608 0 576 0C544 0 512 0 480 0C448 0 416 0 384 0C352 0 320 0 288 0C256 0 224 0 192 0C160 0 128 0 96 0C64 0 32 0 16 0L0 0Z" fill="#23251f"></path><path d="M0 116L16 114.8C32 113.7 64 111.3 96 111.5C128 111.7 160 114.3 192 117.8C224 121.3 256 125.7 288 124.8C320 124 352 118 384 115.3C416 112.7 448 113.3 480 115.2C512 117 544 120 576 123C608 126 640 129 672 128.3C704 127.7 736 123.3 768 122.7C800 122 832 125 864 124C896 123 928 118 944 115.5L960 113L960 0L944 0C928 0 896 0 864 0C832 0 800 0 768 0C736 0 704 0 672 0C640 0 608 0 576 0C544 0 512 0 480 0C448 0 416 0 384 0C352 0 320 0 288 0C256 0 224 0 192 0C160 0 128 0 96 0C64 0 32 0 16 0L0 0Z" fill="#22241e"></path><path d="M0 68L16 69.3C32 70.7 64 73.3 96 75.2C128 77 160 78 192 74.7C224 71.3 256 63.7 288 63.8C320 64 352 72 384 75.3C416 78.7 448 77.3 480 74.3C512 71.3 544 66.7 576 66.5C608 66.3 640 70.7 672 73.5C704 76.3 736 77.7 768 76.2C800 74.7 832 70.3 864 66.3C896 62.3 928 58.7 944 56.8L960 55L960 0L944 0C928 0 896 0 864 0C832 0 800 0 768 0C736 0 704 0 672 0C640 0 608 0 576 0C544 0 512 0 480 0C448 0 416 0 384 0C352 0 320 0 288 0C256 0 224 0 192 0C160 0 128 0 96 0C64 0 32 0 16 0L0 0Z" fill="#20221c"></path></svg>