<svg id="visual" viewBox="0 0 960 540" width="960" height="540" xmlns="http://www.w3.org/2000/svg" xmlns:xlink="http://www.w3.org/1999/xlink" version="1.1"><rect x="0" y="0" width="960" height="540" fill="#C1D4B0"></rect><path d="M0 365L16 373.2C32 381.3 64 397.7 96 404.8C128 412 160 410 192 407.8C224 405.7 256 403.3 288 402.5C320 401.7 352 402.3 384 401C416 399.7 448 396.3 480 398C512 399.7 544 406.3 576 408.2C608 410 640 407 672 401.8C704 396.7 736 389.3 768 384.2C800 379 832 376 864 382C896 388 928 403 944 410.5L960 418L960 0L944 0C928 0 896 0 864 0C832 0 800 0 768 0C736 0 704 0 672 0C640 0 608 0 576 0C544 0 512 0 480 0C448 0 416 0 384 0C352 0 320 0 288 0C256 0 224 0 192 0C160 0 128 0 96 0C64 0 32 0 16 0L0 0Z" fill="#c1d4b0"></path><path d="M0 318L16 322.8C32 327.7 64 337.3 96 344.3C128 351.3 160 355.7 192 349.5C224 343.3 256 326.7 288 325C320 323.3 352 336.7 384 340C416 343.3 448 336.7 480 335.5C512 334.3 544 338.7 576 342.2C608 345.7 640 348.3 672 343.2C704 338 736 325 768 321.2C800 317.3 832 322.7 864 330.7C896 338.7 928 349.3 944 354.7L960 360L960 0L944 0C928 0 896 0 864 0C832 0 800 0 768 0C736 0 704 0 672 0C640 0 608 0 576 0C544 0 512 0 480 0C448 0 416 0 384 0C352 0 320 0 288 0C256 0 224 0 192 0C160 0 128 0 96 0C64 0 32 0 16 0L0 0Z" fill="#c8dbba"></path><path d="M0 288L16 285.8C32 283.7 64 279.3 96 277.3C128 275.3 160 275.7 192 275.8C224 276 256 276 288 279.3C320 282.7 352 289.3 384 287.5C416 285.7 448 275.3 480 275C512 274.7 544 284.3 576 290.7C608 297 640 300 672 295.2C704 290.3 736 277.7 768 277.5C800 277.3 832 289.7 864 294.2C896 298.7 928 295.3 944 293.7L960 292L960 0L944 0C928 0 896 0 864 0C832 0 800 0 768 0C736 0 704 0 672 0C640 0 608 0 576 0C544 0 512 0 480 0C448 0 416 0 384 0C352 0 320 0 288 0C256 0 224 0 192 0C160 0 128 0 96 0C64 0 32 0 16 0L0 0Z" fill="#cfe2c4"></path><path d="M0 210L16 215.2C32 220.3 64 230.7 96 236C128 241.3 160 241.7 192 242C224 242.3 256 242.7 288 242.7C320 242.7 352 242.3 384 240.8C416 239.3 448 236.7 480 236.7C512 236.7 544 239.3 576 236C608 232.7 640 223.3 672 220C704 216.7 736 219.3 768 223.8C800 228.3 832 234.7 864 232.5C896 230.3 928 219.7 944 214.3L960 209L960 0L944 0C928 0 896 0 864 0C832 0 800 0 768 0C736 0 704 0 672 0C640 0 608 0 576 0C544 0 512 0 480 0C448 0 416 0 384 0C352 0 320 0 288 0C256 0 224 0 192 0C160 0 128 0 96 0C64 0 32 0 16 0L0 0Z" fill="#d6e9ce"></path><path d="M0 165L16 169.7C32 174.3 64 183.7 96 182.5C128 181.3 160 169.7 192 164.3C224 159 256 160 288 165.5C320 171 352 181 384 182.2C416 183.3 448 175.7 480 170.7C512 165.7 544 163.3 576 163.3C608 163.3 640 165.7 672 170.8C704 176 736 184 768 184C800 184 832 176 864 170.3C896 164.7 928 161.3 944 159.7L960 158L960 0L944 0C928 0 896 0 864 0C832 0 800 0 768 0C736 0 704 0 672 0C640 0 608 0 576 0C544 0 512 0 480 0C448 0 416 0 384 0C352 0 320 0 288 0C256 0 224 0 192 0C160 0 128 0 96 0C64 0 32 0 16 0L0 0Z" fill="#ddf0d8"></path><path d="M0 119L16 118.5C32 118 64 117 96 118C128 119 160 122 192 123.8C224 125.7 256 126.3 288 126C320 125.7 352 124.3 384 125.5C416 126.7 448 130.3 480 130.8C512 131.3 544 128.7 576 127.3C608 126 640 126 672 126.7C704 127.3 736 128.7 768 126.7C800 124.7 832 119.3 864 118C896 116.7 928 119.3 944 120.7L960 122L960 0L944 0C928 0 896 0 864 0C832 0 800 0 768 0C736 0 704 0 672 0C640 0 608 0 576 0C544 0 512 0 480 0C448 0 416 0 384 0C352 0 320 0 288 0C256 0 224 0 192 0C160 0 128 0 96 0C64 0 32 0 16 0L0 0Z" fill="#e5f7e2"></path><path d="M0 73L16 72.2C32 71.3 64 69.7 96 69.7C128 69.7 160 71.3 192 72.8C224 74.3 256 75.7 288 76.8C320 78 352 79 384 78.8C416 78.7 448 77.3 480 75.3C512 73.3 544 70.7 576 68.7C608 66.7 640 65.3 672 66C704 66.7 736 69.3 768 71.2C800 73 832 74 864 72.7C896 71.3 928 67.7 944 65.8L960 64L960 0L944 0C928 0 896 0 864 0C832 0 800 0 768 0C736 0 704 0 672 0C640 0 608 0 576 0C544 0 512 0 480 0C448 0 416 0 384 0C352 0 320 0 288 0C256 0 224 0 192 0C160 0 128 0 96 0C64 0 32 0 16 0L0 0Z" fill="#edfeec"></path></svg>