<svg id="visual" viewBox="0 0 960 540" width="960" height="540" xmlns="http://www.w3.org/2000/svg" xmlns:xlink="http://www.w3.org/1999/xlink" version="1.1"><rect x="0" y="0" width="960" height="540" fill="#D1D8C0"></rect><path d="M0 418L16 414.5C32 411 64 404 96 397.7C128 391.3 160 385.7 192 379.8C224 374 256 368 288 366.5C320 365 352 368 384 370.7C416 373.3 448 375.7 480 383.2C512 390.7 544 403.3 576 410C608 416.7 640 417.3 672 411.7C704 406 736 394 768 384.8C800 375.7 832 369.3 864 373C896 376.7 928 390.3 944 397.2L960 404L960 0L944 0C928 0 896 0 864 0C832 0 800 0 768 0C736 0 704 0 672 0C640 0 608 0 576 0C544 0 512 0 480 0C448 0 416 0 384 0C352 0 320 0 288 0C256 0 224 0 192 0C160 0 128 0 96 0C64 0 32 0 16 0L0 0Z" fill="#d1d8c0"></path><path d="M0 351L16 346.7C32 342.3 64 333.7 96 328C128 322.3 160 319.7 192 318.8C224 318 256 319 288 324.7C320 330.3 352 340.7 384 339C416 337.3 448 323.7 480 323.5C512 323.3 544 336.7 576 340.5C608 344.3 640 338.7 672 336.3C704 334 736 335 768 338.5C800 342 832 348 864 349.2C896 350.3 928 346.7 944 344.8L960 343L960 0L944 0C928 0 896 0 864 0C832 0 800 0 768 0C736 0 704 0 672 0C640 0 608 0 576 0C544 0 512 0 480 0C448 0 416 0 384 0C352 0 320 0 288 0C256 0 224 0 192 0C160 0 128 0 96 0C64 0 32 0 16 0L0 0Z" fill="#d6ddc2"></path><path d="M0 296L16 295C32 294 64 292 96 289.7C128 287.3 160 284.7 192 283.3C224 282 256 282 288 283.3C320 284.7 352 287.3 384 287.8C416 288.3 448 286.7 480 287.3C512 288 544 291 576 291C608 291 640 288 672 282.7C704 277.3 736 269.7 768 266.7C800 263.7 832 265.3 864 266.7C896 268 928 269 944 269.5L960 270L960 0L944 0C928 0 896 0 864 0C832 0 800 0 768 0C736 0 704 0 672 0C640 0 608 0 576 0C544 0 512 0 480 0C448 0 416 0 384 0C352 0 320 0 288 0C256 0 224 0 192 0C160 0 128 0 96 0C64 0 32 0 16 0L0 0Z" fill="#dbe3c3"></path><path d="M0 234L16 235.3C32 236.7 64 239.3 96 241.2C128 243 160 244 192 244.3C224 244.7 256 244.3 288 238.2C320 232 352 220 384 219.5C416 219 448 230 480 231C512 232 544 223 576 219.5C608 216 640 218 672 221.8C704 225.7 736 231.3 768 233C800 234.7 832 232.3 864 229.7C896 227 928 224 944 222.5L960 221L960 0L944 0C928 0 896 0 864 0C832 0 800 0 768 0C736 0 704 0 672 0C640 0 608 0 576 0C544 0 512 0 480 0C448 0 416 0 384 0C352 0 320 0 288 0C256 0 224 0 192 0C160 0 128 0 96 0C64 0 32 0 16 0L0 0Z" fill="#e1e8c5"></path><path d="M0 190L16 190.2C32 190.3 64 190.7 96 189.8C128 189 160 187 192 184.2C224 181.3 256 177.7 288 178.5C320 179.3 352 184.7 384 186.8C416 189 448 188 480 184.5C512 181 544 175 576 172.3C608 169.7 640 170.3 672 171.2C704 172 736 173 768 170.5C800 168 832 162 864 163.2C896 164.3 928 172.7 944 176.8L960 181L960 0L944 0C928 0 896 0 864 0C832 0 800 0 768 0C736 0 704 0 672 0C640 0 608 0 576 0C544 0 512 0 480 0C448 0 416 0 384 0C352 0 320 0 288 0C256 0 224 0 192 0C160 0 128 0 96 0C64 0 32 0 16 0L0 0Z" fill="#e7edc7"></path><path d="M0 125L16 123.3C32 121.7 64 118.3 96 115.7C128 113 160 111 192 109.3C224 107.7 256 106.3 288 108.5C320 110.7 352 116.3 384 119.8C416 123.3 448 124.7 480 127C512 129.3 544 132.7 576 129.5C608 126.3 640 116.7 672 113.2C704 109.7 736 112.3 768 113C800 113.7 832 112.3 864 112.5C896 112.7 928 114.3 944 115.2L960 116L960 0L944 0C928 0 896 0 864 0C832 0 800 0 768 0C736 0 704 0 672 0C640 0 608 0 576 0C544 0 512 0 480 0C448 0 416 0 384 0C352 0 320 0 288 0C256 0 224 0 192 0C160 0 128 0 96 0C64 0 32 0 16 0L0 0Z" fill="#ecf2c8"></path><path d="M0 70L16 70.3C32 70.7 64 71.3 96 69.3C128 67.3 160 62.7 192 62.2C224 61.7 256 65.3 288 67.2C320 69 352 69 384 68.2C416 67.3 448 65.7 480 64.7C512 63.7 544 63.3 576 62.2C608 61 640 59 672 61.3C704 63.7 736 70.3 768 73.2C800 76 832 75 864 71.2C896 67.3 928 60.7 944 57.3L960 54L960 0L944 0C928 0 896 0 864 0C832 0 800 0 768 0C736 0 704 0 672 0C640 0 608 0 576 0C544 0 512 0 480 0C448 0 416 0 384 0C352 0 320 0 288 0C256 0 224 0 192 0C160 0 128 0 96 0C64 0 32 0 16 0L0 0Z" fill="#f2f7ca"></path></svg>