<svg id="visual" viewBox="0 0 960 540" width="960" height="540" xmlns="http://www.w3.org/2000/svg" xmlns:xlink="http://www.w3.org/1999/xlink" version="1.1"><rect x="0" y="0" width="960" height="540" fill="#343332"></rect><path d="M0 391L32 394.3C64 397.7 128 404.3 192 415C256 425.7 320 440.3 384 438.7C448 437 512 419 576 401.5C640 384 704 367 768 379C832 391 896 432 928 452.5L960 473L960 0L928 0C896 0 832 0 768 0C704 0 640 0 576 0C512 0 448 0 384 0C320 0 256 0 192 0C128 0 64 0 32 0L0 0Z" fill="#343332"></path><path d="M0 358L32 360.5C64 363 128 368 192 369.3C256 370.7 320 368.3 384 371.5C448 374.7 512 383.3 576 390.8C640 398.3 704 404.7 768 396.2C832 387.7 896 364.3 928 352.7L960 341L960 0L928 0C896 0 832 0 768 0C704 0 640 0 576 0C512 0 448 0 384 0C320 0 256 0 192 0C128 0 64 0 32 0L0 0Z" fill="#31302f"></path><path d="M0 269L32 268.7C64 268.3 128 267.7 192 279.3C256 291 320 315 384 321.3C448 327.7 512 316.3 576 302.8C640 289.3 704 273.7 768 271.7C832 269.7 896 281.3 928 287.2L960 293L960 0L928 0C896 0 832 0 768 0C704 0 640 0 576 0C512 0 448 0 384 0C320 0 256 0 192 0C128 0 64 0 32 0L0 0Z" fill="#2d2c2b"></path><path d="M0 276L32 272.8C64 269.7 128 263.3 192 261.7C256 260 320 263 384 263.7C448 264.3 512 262.7 576 252.3C640 242 704 223 768 216.7C832 210.3 896 216.7 928 219.8L960 223L960 0L928 0C896 0 832 0 768 0C704 0 640 0 576 0C512 0 448 0 384 0C320 0 256 0 192 0C128 0 64 0 32 0L0 0Z" fill="#2a2928"></path><path d="M0 193L32 196.5C64 200 128 207 192 198.8C256 190.7 320 167.3 384 161.2C448 155 512 166 576 177.7C640 189.3 704 201.7 768 196.5C832 191.3 896 168.7 928 157.3L960 146L960 0L928 0C896 0 832 0 768 0C704 0 640 0 576 0C512 0 448 0 384 0C320 0 256 0 192 0C128 0 64 0 32 0L0 0Z" fill="#272624"></path><path d="M0 134L32 136.8C64 139.7 128 145.3 192 146.8C256 148.3 320 145.7 384 140.8C448 136 512 129 576 126.3C640 123.7 704 125.3 768 124.2C832 123 896 119 928 117L960 115L960 0L928 0C896 0 832 0 768 0C704 0 640 0 576 0C512 0 448 0 384 0C320 0 256 0 192 0C128 0 64 0 32 0L0 0Z" fill="#232321"></path><path d="M0 59L32 62C64 65 128 71 192 77C256 83 320 89 384 82.2C448 75.3 512 55.7 576 56.2C640 56.7 704 77.3 768 82.5C832 87.7 896 77.3 928 72.2L960 67L960 0L928 0C896 0 832 0 768 0C704 0 640 0 576 0C512 0 448 0 384 0C320 0 256 0 192 0C128 0 64 0 32 0L0 0Z" fill="#1f201e"></path></svg>